<?xml version="1.0" encoding="UTF-8"?>
<svg version="1.1" xmlns="http://www.w3.org/2000/svg" width="963" height="948">
<path d="M0 0 C3.92186939 0.01073282 7.84328094 0.00002369 11.76513672 -0.01269531 C32.55775812 -0.02524603 53.28610949 0.77427229 73.80029297 4.38574219 C75.03175049 4.5989209 76.26320801 4.81209961 77.53198242 5.03173828 C156.67403605 19.17290673 231.70209433 51.01911924 293.42529297 103.26074219 C294.45603103 104.11812884 295.48730857 104.97486723 296.51904297 105.83105469 C307.92560754 115.33395496 318.67774585 125.42122655 329.21536255 135.87557983 C330.63154394 137.27986079 332.05167305 138.6801571 333.47192383 140.08032227 C338.81852106 145.42019844 343.76649943 150.91917954 348.46826172 156.83618164 C350.29640528 159.1010636 352.19787625 161.25115045 354.17529297 163.38574219 C372.25900732 183.57803193 386.87837062 206.89675991 400.42529297 230.26074219 C401.16924316 231.52772949 401.16924316 231.52772949 401.92822266 232.8203125 C430.68042233 281.97470285 447.60424998 338.12548152 455.42529297 394.26074219 C455.5904541 395.35580078 455.75561523 396.45085937 455.92578125 397.57910156 C461.52979486 435.526445 461.03936682 477.3325897 455.42529297 515.26074219 C455.25900391 516.45441406 455.09271484 517.64808594 454.92138672 518.87792969 C449.20289038 559.28863713 437.97264215 598.93503462 421.42529297 636.26074219 C420.9825 637.27217285 420.53970703 638.28360352 420.08349609 639.32568359 C413.10107939 655.19415941 405.25900396 670.34861005 396.42529297 685.26074219 C395.95768555 686.05915527 395.49007812 686.85756836 395.00830078 687.68017578 C384.77799754 705.10999047 373.15200369 721.5697355 360.42529297 737.26074219 C359.65701172 738.22238281 358.88873047 739.18402344 358.09716797 740.17480469 C353.57837208 745.78379958 348.86740992 751.1693597 343.97998047 756.45996094 C342.05283448 758.57274943 340.18368802 760.70770144 338.32373047 762.87792969 C333.98174316 767.85300146 329.3424022 772.52969713 324.67480469 777.1965332 C323.1863606 778.68715834 321.7061202 780.18561236 320.22607422 781.68457031 C314.69232924 787.24991834 309.01714667 792.41780433 302.85180664 797.2956543 C300.4599543 799.23267205 298.22086661 801.26899931 295.98779297 803.38574219 C287.99532329 810.65508366 279.13492372 816.889324 270.42529297 823.26074219 C269.31178467 824.08010254 269.31178467 824.08010254 268.17578125 824.91601562 C257.01553712 833.09933847 245.40921563 840.34758736 233.42529297 847.26074219 C232.6819873 847.6909668 231.93868164 848.12119141 231.17285156 848.56445312 C193.98205036 869.97151506 154.14485599 886.12321122 112.42529297 896.26074219 C111.4148291 896.50775879 110.40436523 896.75477539 109.36328125 897.00927734 C94.67247426 900.53194769 79.94846267 903.06406327 64.98779297 905.07324219 C64.20596649 905.17847198 63.42414001 905.28370178 62.61862183 905.39212036 C48.68376213 907.24671176 34.90027935 908.41303491 20.83154297 908.46386719 C19.56475708 908.46956726 18.29797119 908.47526733 16.99279785 908.48114014 C14.32035772 908.49053079 11.64802807 908.49745636 8.97558594 908.50097656 C4.99120678 908.50744607 1.00720749 908.54162501 -2.97705078 908.57324219 C-90.68261722 908.93278863 -178.78798887 880.76629387 -285.57470703 805.26074219 C-286.10870117 804.81021484 -286.64269531 804.3596875 -287.19287109 803.89550781 C-299.40370717 793.5902501 -311.06746071 782.85197847 -322.38720703 771.57324219 C-323.73117554 770.23628296 -323.73117554 770.23628296 -325.10229492 768.87231445 C-330.13352701 763.82887861 -334.96101341 758.68778762 -339.57470703 753.26074219 C-340.45188401 752.25125624 -341.32945889 751.24211585 -342.20751953 750.23339844 C-361.3734121 727.85316338 -377.85541197 703.76600958 -392.57470703 678.26074219 C-393.37521484 676.88063965 -393.37521484 676.88063965 -394.19189453 675.47265625 C-422.4235671 626.44341271 -439.68532562 571.11608104 -447.57470703 515.26074219 C-447.73986816 514.14892578 -447.9050293 513.03710938 -448.07519531 511.89160156 C-453.55780241 473.54170045 -453.24447783 431.56517798 -447.57470703 393.26074219 C-447.40841797 392.06707031 -447.24212891 390.87339844 -447.07080078 389.64355469 C-441.35656022 349.26292136 -430.17217524 309.53851298 -413.57470703 272.26074219 C-413.09952637 271.18453613 -412.6243457 270.10833008 -412.13476562 268.99951172 C-396.51179454 233.83674143 -376.74029321 201.20122679 -352.57470703 171.26074219 C-351.79224609 170.28363281 -351.00978516 169.30652344 -350.20361328 168.29980469 C-345.92339066 163.00330738 -341.50540107 157.86883854 -336.91064453 152.84277344 C-335.64546612 151.444307 -334.38637803 150.03970564 -333.16333008 148.60424805 C-328.13283603 142.71950482 -322.71349709 137.24723251 -317.23217773 131.7878418 C-315.64011737 130.20114272 -314.05347713 128.60916477 -312.46728516 127.01660156 C-307.00904612 121.55452762 -301.47240482 116.25110186 -295.57470703 111.26074219 C-294.61048828 110.41511719 -293.64626953 109.56949219 -292.65283203 108.69824219 C-283.00387235 100.38201174 -272.84605353 92.78764986 -262.57470703 85.26074219 C-261.83671875 84.71740234 -261.09873047 84.1740625 -260.33837891 83.61425781 C-249.17361072 75.42813063 -237.56322637 68.1765487 -225.57470703 61.26074219 C-224.83140137 60.83051758 -224.0880957 60.40029297 -223.32226562 59.95703125 C-186.42183907 38.71710925 -146.23310576 21.63406299 -104.57470703 12.26074219 C-102.75737061 11.85130371 -102.75737061 11.85130371 -100.90332031 11.43359375 C-67.2361592 3.9055788 -34.58655281 -0.11216794 0 0 Z " fill="#FDFDFD" transform="translate(474.57470703125,25.7392578125)"/>
<path d="M0 0 C4.20087175 2.94142277 7.7206275 6.816255 10.01953125 11.4140625 C10.73046889 18.28645964 9.22443785 21.99919702 5.01953125 27.4140625 C2.83203125 29.9140625 2.83203125 29.9140625 1.01953125 31.4140625 C0.35953125 31.4140625 -0.30046875 31.4140625 -0.98046875 31.4140625 C0.25789546 27.69896987 2.24058061 26.12523386 5.01953125 23.4140625 C7.52257503 19.65949683 7.47233199 17.86660316 7.01953125 13.4140625 C4.52004524 8.31511105 1.17515396 5.60685763 -3.98046875 3.4140625 C-14.18483951 1.04347606 -23.7181243 3.13222648 -32.49291992 8.52612305 C-48.74326086 19.29767248 -58.46743643 36.53707706 -68.05395508 53.04345703 C-73.19061523 61.86815207 -78.71760243 70.40085354 -84.34228516 78.91992188 C-86.02146816 81.47648426 -87.68129301 84.04468362 -89.3359375 86.6171875 C-95.63704061 96.40786341 -102.06773924 106.04452578 -108.98046875 115.4140625 C-109.66592773 116.34847168 -109.66592773 116.34847168 -110.36523438 117.30175781 C-117.4771242 126.97835486 -124.89217911 136.37165867 -132.52441406 145.64208984 C-133.81550224 147.21330345 -135.09785459 148.79168641 -136.37890625 150.37109375 C-141.96896479 157.26280852 -147.72498342 164.00562903 -153.52490234 170.72070312 C-154.52271837 171.88153036 -155.51496646 173.04716021 -156.50244141 174.21679688 C-157.00694824 174.81298828 -157.51145508 175.40917969 -158.03125 176.0234375 C-158.47766846 176.55420898 -158.92408691 177.08498047 -159.3840332 177.63183594 C-160.9992702 179.43505204 -162.68563517 181.14835602 -164.40504456 182.85192871 C-166.34027856 184.77083692 -168.2623504 186.70257528 -170.18481445 188.63427734 C-174.1258074 192.5912777 -178.06900764 196.54606684 -182.01383686 200.49924278 C-184.3887351 202.87935284 -186.76268869 205.26038953 -189.13452148 207.64355469 C-191.88937206 210.41060015 -194.64749719 213.17434572 -197.40625 215.9375 C-198.2460994 216.78251068 -199.08594879 217.62752136 -199.95124817 218.49813843 C-204.79817883 223.34552437 -209.76295669 227.96897554 -214.98046875 232.4140625 C-215.55771194 232.91996918 -216.13495514 233.42587585 -216.72969055 233.94711304 C-220.74300039 237.4140625 -220.74300039 237.4140625 -222.98046875 237.4140625 C-222.98046875 236.7540625 -222.98046875 236.0940625 -222.98046875 235.4140625 C-223.5115625 235.20136719 -224.04265625 234.98867188 -224.58984375 234.76953125 C-227.90158337 232.89179653 -230.49093002 230.33457771 -233.23046875 227.7265625 C-236.68106868 224.47135799 -240.14459889 221.25515459 -243.7409668 218.16064453 C-247.74770937 214.66261301 -251.54310558 210.99659671 -255.296875 207.23046875 C-255.9570311 206.57126938 -256.61718719 205.91207001 -257.29734802 205.2328949 C-258.68082381 203.85009415 -260.06305958 202.46605174 -261.4440918 201.08081055 C-263.53778544 198.98175907 -265.63676749 196.8881031 -267.73632812 194.79492188 C-269.09016446 193.44042464 -270.4436905 192.08561719 -271.796875 190.73046875 C-272.41373672 190.11563126 -273.03059845 189.50079376 -273.66615295 188.86732483 C-277.42363315 185.08991476 -280.9932012 181.1932973 -284.47364807 177.15899658 C-286.39364239 174.93559762 -288.37342485 172.76966033 -290.35546875 170.6015625 C-294.25410272 166.28145459 -297.95550733 161.83334869 -301.61328125 157.30859375 C-303.66453388 154.8003789 -305.7549874 152.33271503 -307.86791992 149.87646484 C-318.20171236 137.83734668 -327.67960201 125.10963405 -336.78222656 112.12109375 C-338.04766046 110.31834033 -339.32255101 108.52248537 -340.59765625 106.7265625 C-341.43409761 105.53941735 -342.270053 104.35192962 -343.10546875 103.1640625 C-343.85054688 102.10703125 -344.595625 101.05 -345.36328125 99.9609375 C-346.98046875 97.4140625 -346.98046875 97.4140625 -346.98046875 95.4140625 C-344.62588391 95.99574706 -342.27174341 96.57911347 -339.91796875 97.1640625 C-338.82693848 97.43476563 -338.82693848 97.43476563 -337.71386719 97.7109375 C-333.03295828 98.87964297 -328.380012 100.12508021 -323.73046875 101.4140625 C-298.03373127 108.22556776 -272.24944549 110.68206101 -245.73046875 110.7265625 C-244.44277084 110.73194031 -244.44277084 110.73194031 -243.12905884 110.73742676 C-226.88494117 110.77400691 -211.43134354 109.3405676 -195.60546875 105.4765625 C-194.53425781 105.22455078 -193.46304688 104.97253906 -192.359375 104.71289062 C-179.20400301 101.83951989 -179.20400301 101.83951989 -166.66796875 97.1015625 C-162.61066103 95.16185952 -158.52432786 93.41316379 -154.35546875 91.7265625 C-140.49350446 85.79655371 -128.00238421 77.43401017 -115.98046875 68.4140625 C-115.4184375 67.99624512 -114.85640625 67.57842773 -114.27734375 67.14794922 C-107.6630384 62.21945736 -101.31883655 57.08889397 -95.24609375 51.49609375 C-93.17154839 49.5896581 -91.05780944 47.7464064 -88.91796875 45.9140625 C-85.9795398 43.35993512 -83.21698636 40.68332477 -80.48046875 37.9140625 C-77.16771352 34.56180253 -73.77002142 31.40728499 -70.1875 28.34765625 C-68.02603599 26.45398424 -65.94200727 24.49083471 -63.85668945 22.51416016 C-47.36706471 6.99798375 -23.63466045 -11.50689248 0 0 Z " fill="#209646" transform="translate(690.98046875,329.5859375)"/>
<path d="M0 0 C49.73151692 -1.17119983 98.6307405 4.93024902 142.51416016 29.83691406 C143.17843018 30.21332031 143.8427002 30.58972656 144.52709961 30.97753906 C147.17890449 32.49304875 149.7997649 34.0288707 152.36181641 35.69238281 C158.64858539 39.47331442 164.96487213 39.81980425 172.12695312 40.34594727 C179.72766498 40.90908667 187.18350373 41.96918585 194.70166016 43.21191406 C195.81162354 43.3950415 196.92158691 43.57816895 198.06518555 43.7668457 C200.67413019 44.20149823 203.28210282 44.64110239 205.88916016 45.08691406 C205.22916016 47.39691406 204.56916016 49.70691406 203.88916016 52.08691406 C202.91452316 52.09722153 201.93988617 52.10752899 200.93571472 52.1181488 C191.57239453 52.21758814 182.20911636 52.32042003 172.8458662 52.42625332 C168.03666411 52.48051156 163.22745607 52.5337312 158.41821289 52.58422852 C138.9433732 52.7895244 119.47163126 53.03355568 100.00244141 53.55957031 C99.26563833 53.57826109 98.52883526 53.59695187 97.76970482 53.61620903 C95.70560069 53.66958315 93.64175902 53.72884979 91.57788086 53.7902832 C89.84741264 53.83989952 89.84741264 53.83989952 88.08198547 53.89051819 C84.95489773 54.08287044 81.97115909 54.53916066 78.88916016 55.08691406 C77.05065946 55.17139766 75.21004411 55.21783479 73.36962891 55.22753906 C72.34675781 55.246875 71.32388672 55.26621094 70.27001953 55.28613281 C68.15302121 55.31979762 66.03572139 55.33820156 63.91845703 55.34082031 C57.43784068 55.49541129 53.41177408 56.51299083 47.93774414 59.96044922 C44.75027723 61.71315716 41.91254313 61.71405882 38.32666016 61.64941406 C37.10849609 61.65070313 35.89033203 61.65199219 34.63525391 61.65332031 C31.26831701 61.14424226 29.97717203 60.69611789 27.18212891 59.07519531 C21.86345517 56.2220981 16.67800813 56.57669973 10.76416016 56.71191406 C9.53640869 56.72697998 8.30865723 56.7420459 7.04370117 56.75756836 C2.65741316 56.82285652 -1.72624917 56.95083341 -6.11083984 57.08691406 C-6.98198425 57.1133197 -7.85312866 57.13972534 -8.75067139 57.16693115 C-32.63256858 57.90629734 -56.41042193 58.91950937 -80.11083984 62.08691406 C-81.19139648 62.22323242 -82.27195312 62.35955078 -83.38525391 62.5 C-96.96972756 64.22646818 -110.32481948 66.62689707 -123.67333984 69.64941406 C-124.32678375 69.79721313 -124.98022766 69.94501221 -125.6534729 70.09729004 C-132.53685073 71.66648983 -139.33193848 73.34272986 -146.0402832 75.55151367 C-148.11083984 76.08691406 -148.11083984 76.08691406 -152.11083984 76.08691406 C-151.89599609 74.24707031 -151.89599609 74.24707031 -151.11083984 72.08691406 C-149.10693359 70.70800781 -149.10693359 70.70800781 -146.54833984 69.52441406 C-145.72205078 69.13125 -144.89576172 68.73808594 -144.04443359 68.33300781 C-143.07634766 67.92179687 -142.10826172 67.51058594 -141.11083984 67.08691406 C-140.01900391 66.61769531 -138.92716797 66.14847656 -137.80224609 65.66503906 C-130.97760756 63.14178561 -123.71462713 61.90171851 -116.61083984 60.39941406 C-115.10551178 60.07640385 -113.60030221 59.75284085 -112.09521484 59.42871094 C-108.43510193 58.64172903 -104.77343815 57.86225736 -101.11083984 57.08691406 C-111.72777052 56.97427524 -122.26363701 57.27531478 -132.86083984 57.89941406 C-133.61353149 57.94292999 -134.36622314 57.98644592 -135.14172363 58.03128052 C-166.75811369 59.8858523 -196.11394448 64.95456354 -226.11083984 75.08691406 C-225.05848145 75.12131592 -224.00612305 75.15571777 -222.921875 75.19116211 C-202.52655786 75.88660394 -182.3023648 77.02811836 -162.04833984 79.58691406 C-161.16515076 79.6984079 -160.28196167 79.80990173 -159.37200928 79.92477417 C-155.93540299 80.35977711 -152.49888332 80.79544893 -149.06262207 81.23316956 C-131.15060862 83.49092656 -113.14199569 84.40649309 -95.11083984 85.08691406 C-114.4959677 105.27829497 -144.96673747 108.47482274 -171.63720703 109.18017578 C-185.80316089 109.40541631 -199.99212872 109.35716005 -214.11083984 108.08691406 C-214.78356934 108.02777832 -215.45629883 107.96864258 -216.14941406 107.90771484 C-241.16570814 105.60257919 -241.16570814 105.60257919 -249.11083984 98.08691406 C-250.48583984 94.33691406 -250.48583984 94.33691406 -251.11083984 91.08691406 C-255.84750444 97.05923029 -255.60831299 102.69851653 -255.11083984 110.08691406 C-253.33202036 119.76489804 -247.06702632 127.51950997 -239.11083984 133.08691406 C-238.12083984 133.41691406 -237.13083984 133.74691406 -236.11083984 134.08691406 C-236.11083984 134.74691406 -236.11083984 135.40691406 -236.11083984 136.08691406 C-240.58999313 136.11577745 -245.06912276 136.13366594 -249.54833984 136.14941406 C-250.82773438 136.15779297 -252.10712891 136.16617188 -253.42529297 136.17480469 C-254.64023438 136.17802734 -255.85517578 136.18125 -257.10693359 136.18457031 C-258.79580688 136.19242554 -258.79580688 136.19242554 -260.51879883 136.20043945 C-263.11083984 136.08691406 -263.11083984 136.08691406 -264.11083984 135.08691406 C-265.3358023 126.24681731 -265.35425001 117.2448971 -265.42333984 108.33691406 C-265.45234375 107.07492187 -265.48134766 105.81292969 -265.51123047 104.51269531 C-265.58372455 93.88394702 -263.48542867 87.83186628 -256.11083984 80.08691406 C-227.5844481 58.04887809 -187.57217436 52.41432562 -152.98721313 46.7328949 C-149.69390026 46.19120698 -146.40224891 45.64006273 -143.11083984 45.08691406 C-142.09489746 44.91869141 -141.07895508 44.75046875 -140.03222656 44.57714844 C-135.43406234 43.75177159 -131.96448237 42.87010033 -128.11083984 40.08691406 C-101.6021288 22.10286609 -70.84033304 7.86089286 -39.11083984 3.08691406 C-37.81146484 2.89097656 -36.51208984 2.69503906 -35.17333984 2.49316406 C-23.47515823 0.8893811 -11.79528461 0.32954963 0 0 Z " fill="#0F5385" transform="translate(485.11083984375,263.9130859375)"/>
<path d="M0 0 C1.51180719 1.40067639 3.01030533 2.81408947 4.50415039 4.23388672 C6.55080283 6.15798512 8.60931735 7.93766677 10.80102539 9.68701172 C28.75561736 24.95275175 41.85137606 49.6787296 49.11352539 71.68701172 C49.11352539 72.34701172 49.11352539 73.00701172 49.11352539 73.68701172 C45.69053164 72.35548664 42.34389879 70.89400389 38.99951172 69.37695312 C31.91837652 66.1881798 24.75642495 63.37728212 17.42602539 60.81201172 C16.57709717 60.51399658 15.72816895 60.21598145 14.85351562 59.90893555 C11.61435793 58.79463418 8.58113778 57.7614046 5.19165039 57.22216797 C3.11352539 56.68701172 3.11352539 56.68701172 1.73461914 55.11279297 C1.3440332 54.41541016 0.95344727 53.71802734 0.55102539 52.99951172 C-15.85224853 26.65358838 -44.68072491 8.58358325 -74.43481445 1.04101562 C-110.02180605 -7.22481536 -145.46169603 -0.83041596 -176.57397461 17.99951172 C-183.13952879 22.34045534 -189.05180086 27.42347602 -194.88647461 32.68701172 C-195.83780273 33.54166016 -196.78913086 34.39630859 -197.76928711 35.27685547 C-207.47951838 44.47529392 -214.75501804 55.45669166 -221.19897461 67.12451172 C-221.53944824 67.72739014 -221.87992187 68.33026855 -222.23071289 68.95141602 C-224.05183367 72.3808169 -225.092626 75.3381357 -225.62084961 79.19482422 C-227.11774747 88.31220469 -227.11774747 88.31220469 -230.88647461 91.68701172 C-241.50896519 96.05880388 -254.48106991 97.68701172 -265.88647461 97.68701172 C-264.20492492 63.49550136 -243.93005725 32.616886 -220.88647461 8.68701172 C-220.30897461 8.05794922 -219.73147461 7.42888672 -219.13647461 6.78076172 C-202.78623502 -10.55049225 -179.34813077 -23.9111751 -156.88647461 -31.31298828 C-155.28352539 -31.84666016 -155.28352539 -31.84666016 -153.64819336 -32.39111328 C-143.89096981 -35.407187 -133.98447147 -36.96722052 -123.88647461 -38.31298828 C-122.88874023 -38.44705078 -121.89100586 -38.58111328 -120.86303711 -38.71923828 C-78.25576781 -43.43881273 -31.81373323 -28.864858 0 0 Z " fill="#0C669E" transform="translate(574.886474609375,204.31298828125)"/>
<path d="M0 0 C-2.27989392 2.27989392 -4.64119939 3.26693533 -7.55957031 4.56176758 C-21.80158063 10.8879488 -33.31542977 19.83042403 -45 30 C-67.62436751 49.62553528 -91.87664132 66.20090749 -119 79 C-120.09828125 79.52464844 -121.1965625 80.04929687 -122.328125 80.58984375 C-150.1067999 92.76723961 -181.067541 95.27593389 -211 95 C-211 94.34 -211 93.68 -211 93 C-210.13375 92.443125 -209.2675 91.88625 -208.375 91.3125 C-201.98941824 87.16562808 -198.95753123 82.36777813 -196.31640625 75.24609375 C-195.8788501 74.07618896 -195.44129395 72.90628418 -194.99047852 71.70092773 C-194.66362061 70.80962158 -194.3367627 69.91831543 -194 69 C-193.22624023 68.95512451 -192.45248047 68.91024902 -191.65527344 68.86401367 C-176.71842693 67.97554791 -161.92128707 66.96890419 -147.16552734 64.37792969 C-145.08837405 64.01542311 -143.00839459 63.68100973 -140.92578125 63.3515625 C-110.33467725 58.17694789 -81.65011891 45.8118481 -56.36328125 28.04296875 C-51.2969271 24.48835884 -46.15076067 21.05568517 -41 17.625 C-40.12770752 17.04210205 -39.25541504 16.4592041 -38.35668945 15.85864258 C-23.52980774 5.98306576 -23.52980774 5.98306576 -16.8125 3.25 C-15.33716797 2.63898438 -15.33716797 2.63898438 -13.83203125 2.015625 C-9.11691018 0.32468503 -4.99850602 -0.11624433 0 0 Z " fill="#1E9349" transform="translate(656,328)"/>
<path d="M0 0 C1.07204178 0.00141495 2.14408356 0.0028299 3.24861145 0.00428772 C6.63061463 0.00982923 10.01254851 0.02237038 13.39453125 0.03515625 C15.70507716 0.04017882 18.01562412 0.0447404 20.32617188 0.04882812 C25.95314814 0.05977941 31.58008474 0.07645804 37.20703125 0.09765625 C34.4767438 2.86479596 31.7191101 5.34201035 28.64453125 7.72265625 C15.96314681 17.72659731 15.96314681 17.72659731 5.28686523 29.7331543 C0.56421208 33.35890901 -3.77194288 32.64503665 -9.55859375 32.44140625 C-10.77315247 32.41977417 -11.98771118 32.39814209 -13.23907471 32.37585449 C-15.94644887 32.32688683 -18.65232643 32.26906503 -21.35913086 32.19970703 C-26.03791819 32.08480114 -30.716579 32.03060271 -35.39648438 31.984375 C-42.25800075 31.91492067 -49.11923975 31.83606584 -55.98046875 31.7421875 C-57.27693203 31.72448303 -57.27693203 31.72448303 -58.59958649 31.7064209 C-60.35752933 31.68235869 -62.11547152 31.65824959 -63.87341309 31.63409424 C-68.39345507 31.57239811 -72.91352561 31.51286808 -77.43359375 31.453125 C-86.22008046 31.33668754 -95.00653409 31.21795743 -103.79296875 31.09765625 C-101.29306154 28.54498204 -99.10453326 26.4914647 -95.94921875 24.80078125 C-95.20760498 24.4032666 -94.46599121 24.00575195 -93.7019043 23.59619141 C-92.90695557 23.1841748 -92.11200684 22.7721582 -91.29296875 22.34765625 C-90.45999268 21.91372559 -89.6270166 21.47979492 -88.76879883 21.03271484 C-61.03859077 6.8786735 -31.141558 -0.15834874 0 0 Z " fill="#FAFBFC" transform="translate(480.79296875,276.90234375)"/>
<path d="M0 0 C3.3 0 6.6 0 10 0 C10 23.43 10 46.86 10 71 C6.7 71 3.4 71 0 71 C-0.33 69.02 -0.66 67.04 -1 65 C-1.639375 65.598125 -2.27875 66.19625 -2.9375 66.8125 C-9.42885211 71.44918008 -15.54359819 72.61076802 -23.42578125 71.56640625 C-30.43922444 70.0232359 -34.94856006 65.74567847 -39 60 C-42.98819672 53.48594536 -42.86500712 46.46900379 -42 39 C-39.83942604 31.61803897 -35.36377111 26.24251407 -29 22 C-22.98600716 19.0668251 -15.94027496 18.7827813 -9.546875 20.7578125 C-5.3631031 22.72573484 -3.91277175 24.11630434 -1 28 C-0.67 18.76 -0.34 9.52 0 0 Z " fill="#24934D" transform="translate(838,616)"/>
<path d="M0 0 C0.70721191 0.16628906 1.41442383 0.33257812 2.14306641 0.50390625 C20.1024454 4.83050213 37.04018558 12.03490442 52 23 C52 23.66 52 24.32 52 25 C-4.05440532 27.41989451 -4.05440532 27.41989451 -32 27 C-32.495 28.485 -32.495 28.485 -33 30 C-36.21727109 32.22848315 -39.06376334 32.24568582 -42.90234375 32.23046875 C-44.03994141 32.22853516 -45.17753906 32.22660156 -46.34960938 32.22460938 C-48.12561523 32.20624023 -48.12561523 32.20624023 -49.9375 32.1875 C-51.11763672 32.18685547 -52.29777344 32.18621094 -53.51367188 32.18554688 C-58.48853781 32.160208 -63.13452259 32.1219416 -68 31 C-59.16710432 16.06076164 -48.08401938 3.24961874 -31 -2 C-20.56318871 -4.60920282 -10.2591413 -2.44162276 0 0 Z " fill="#F8FAFB" transform="translate(571,283)"/>
<path d="M0 0 C5.86549812 4.52416328 10.47176642 10.37530578 11.44921875 17.88671875 C11.4594449 26.99822107 10.58202263 33.45333022 4.515625 40.4296875 C-3.42749775 47.18134184 -10.71181572 48.9490657 -21.10546875 48.8359375 C-28.39614904 48.12368651 -34.99180947 44.89557155 -39.984375 39.5546875 C-44.52608799 32.63104351 -46.69957646 25.64473626 -45.7265625 17.359375 C-44.07212287 9.44814551 -39.41860813 4.08000914 -32.984375 -0.4453125 C-23.5500113 -5.68662567 -9.28312712 -5.58882143 0 0 Z " fill="#13416C" transform="translate(379.984375,639.4453125)"/>
<path d="M0 0 C0.75023437 0.37382813 1.50046875 0.74765625 2.2734375 1.1328125 C2.84320313 1.41898438 3.41296875 1.70515625 4 2 C2.23570801 6.97209562 -0.3939166 11.43438061 -3 16 C-3.54785156 15.71125 -4.09570312 15.4225 -4.66015625 15.125 C-12.87277511 11.27909068 -21.66615834 10.43367131 -30.52734375 12.625 C-35.7613771 14.87533296 -39.82564289 18.72619566 -42 24 C-43.02457331 30.74449336 -43.37170706 37.64591604 -39.8125 43.6875 C-35.3903557 49.38193721 -31.04714717 51.92189166 -24 53 C-17.73552208 53.61617816 -13.34378841 52.29559567 -7.515625 49.97265625 C-5.34659609 49.13400998 -3.26598364 48.50296366 -1 48 C3.44071801 53.32886161 4.60709557 56.07911053 4 63 C-8.64737416 69.89856772 -23.04856661 71.25285678 -37 67.4375 C-45.93701111 64.25766459 -53.43041112 58.40304338 -58 50 C-62.25755674 39.53516427 -63.61694523 29.81354759 -60 19 C-57.51528546 13.45019965 -54.60965591 9.03344892 -50 5 C-49.236875 4.319375 -48.47375 3.63875 -47.6875 2.9375 C-34.59704167 -6.49980717 -14.25903268 -7.54242269 0 0 Z " fill="#14436F" transform="translate(325,619)"/>
<path d="M0 0 C1.00240723 0.00805664 2.00481445 0.01611328 3.03759766 0.02441406 C10.71056178 0.23028315 18.20711625 1.05234281 24.6875 5.5625 C25.69140625 7.375 25.69140625 7.375 25.6875 9.5625 C24.47265625 12.359375 24.47265625 12.359375 22.75 15.3125 C22.18410156 16.29734375 21.61820313 17.2821875 21.03515625 18.296875 C20.59042969 19.04453125 20.14570313 19.7921875 19.6875 20.5625 C19.15125 20.27375 18.615 19.985 18.0625 19.6875 C10.11494107 15.92286682 2.282886 15.51735873 -6.3125 16.5625 C-12.34806329 18.72185109 -16.10140936 22.91500741 -19.3828125 28.328125 C-21.66967636 33.82428519 -21.36763621 40.71695551 -19.3203125 46.23828125 C-15.75375994 52.23291055 -10.93980643 55.5331325 -4.3125 57.5625 C4.34212664 58.94670271 13.52860442 56.57372691 20.6875 51.5625 C25.50779598 56.14178118 25.50779598 56.14178118 26.01953125 60.1875 C26.00195137 62.66274766 25.90673319 65.09734453 25.6875 67.5625 C24.5325 68.18125 23.3775 68.8 22.1875 69.4375 C21.5378125 69.78554688 20.888125 70.13359375 20.21875 70.4921875 C8.42338886 75.47973218 -5.58310451 75.06886004 -17.51171875 70.8203125 C-21.69750455 68.94050354 -24.991099 66.71563619 -28.3125 63.5625 C-28.93898438 62.97597656 -29.56546875 62.38945313 -30.2109375 61.78515625 C-38.04909425 53.69895656 -39.91784054 44.628569 -39.78540039 33.70166016 C-39.5426632 27.84307644 -38.5213009 23.44545789 -35.3125 18.5625 C-34.87679687 17.86898437 -34.44109375 17.17546875 -33.9921875 16.4609375 C-25.89895935 4.65278496 -14.01848369 -0.21151107 0 0 Z " fill="#14426E" transform="translate(124.3125,614.4375)"/>
<path d="M0 0 C9.03663614 6.0540136 14.78394791 15.28670224 16.9375 25.875 C17.08684258 29.54882735 17.05709609 33.20074242 16.9375 36.875 C14.6275 36.875 12.3175 36.875 9.9375 36.875 C9.69515625 35.99457031 9.4528125 35.11414063 9.203125 34.20703125 C8.86796875 33.04558594 8.5328125 31.88414062 8.1875 30.6875 C7.86265625 29.53894531 7.5378125 28.39039063 7.203125 27.20703125 C5.90300492 23.78418424 4.28155806 21.64748884 1.9375 18.875 C1.9375 18.215 1.9375 17.555 1.9375 16.875 C1.215625 16.58625 0.49375 16.2975 -0.25 16 C-1.97222661 15.31110935 -3.68412343 14.59463943 -5.375 13.83203125 C-10.78955199 11.9038841 -16.93795871 11.85081592 -22.41015625 13.64453125 C-28.887257 17.17636076 -32.55840309 23.42779039 -34.875 30.27734375 C-37.36770943 40.40397581 -35.6488716 50.57776245 -31.0625 59.875 C-28.40498474 63.15670034 -25.54315853 65.51512597 -22.0625 67.875 C-20.72669619 68.87169753 -19.39256895 69.87066222 -18.0625 70.875 C-19.0625 71.875 -19.0625 71.875 -21.74633789 71.98852539 C-22.91414795 71.98328857 -24.08195801 71.97805176 -25.28515625 71.97265625 C-27.17524414 71.96782227 -27.17524414 71.96782227 -29.10351562 71.96289062 C-30.44401109 71.95453403 -31.78450588 71.94606907 -33.125 71.9375 C-34.46939942 71.9324866 -35.8138006 71.92792342 -37.15820312 71.92382812 C-40.45967941 71.91199488 -43.76106803 71.89550971 -47.0625 71.875 C-54.62691481 56.08839519 -58.73031932 40.37307297 -52.9375 23.125 C-50.67776049 17.7105118 -48.02914592 13.19078835 -44.0625 8.875 C-43.50433594 8.24980469 -42.94617188 7.62460937 -42.37109375 6.98046875 C-31.29706693 -4.78723312 -14.29469409 -8.13318801 0 0 Z " fill="#115274" transform="translate(453.0625,351.125)"/>
<path d="M0 0 C0.83829346 -0.01828857 1.67658691 -0.03657715 2.5402832 -0.05541992 C9.57842995 0.01276449 15.64082317 1.72290811 21.09375 6.31640625 C21.5371875 6.89261719 21.980625 7.46882812 22.4375 8.0625 C22.9015625 8.64128906 23.365625 9.22007812 23.84375 9.81640625 C26.50215268 13.90844752 26.06558329 18.20680243 26.03515625 22.88671875 C26.0337413 23.70372757 26.03232635 24.52073639 26.03086853 25.36250305 C26.02527294 27.97087268 26.01272129 30.57915634 26 33.1875 C25.99498443 34.95637897 25.99042162 36.72525928 25.98632812 38.49414062 C25.97530496 42.82946019 25.95804338 47.16471552 25.9375 51.5 C21.3175 51.5 16.6975 51.5 11.9375 51.5 C11.2775 49.85 10.6175 48.2 9.9375 46.5 C9.215625 47.11875 8.49375 47.7375 7.75 48.375 C1.54325855 53.06453798 -4.50287038 53.26578066 -12.0625 52.5 C-17.05518644 51.20681237 -20.12314152 48.90412846 -23.0625 44.6875 C-25.18253949 40.80674975 -25.79031196 37.94773978 -25.0625 33.5 C-23.05377606 28.18080924 -20.15667772 25.14505382 -15.0625 22.5 C-9.24108368 20.74483049 -4.11805489 20.23856635 1.9375 20.375 C3.09958984 20.38853516 3.09958984 20.38853516 4.28515625 20.40234375 C6.16940843 20.42560612 8.05349832 20.4614636 9.9375 20.5 C8.94567995 16.27992467 8.94567995 16.27992467 6.1796875 13.14453125 C0.32927709 11.46279307 -6.0851251 11.63273031 -11.625 14.0625 C-12.429375 14.536875 -13.23375 15.01125 -14.0625 15.5 C-17.38618224 14.39210592 -17.67813093 14.01563783 -19.3125 11.125 C-19.84617188 10.21621094 -19.84617188 10.21621094 -20.390625 9.2890625 C-21.0625 7.5 -21.0625 7.5 -20.0625 4.5 C-14.20824078 0.17796665 -6.97934749 0.07915719 0 0 Z " fill="#16426E" transform="translate(182.0625,635.5)"/>
<path d="M0 0 C4.23873722 2.3202372 7.09158289 5.49565854 9.8125 9.4375 C10.43125 10.30375 11.05 11.17 11.6875 12.0625 C12.8125 15.4375 12.8125 15.4375 12.8125 28.4375 C0.6025 28.4375 -11.6075 28.4375 -24.1875 28.4375 C-20.5600028 34.3821084 -20.5600028 34.3821084 -15.1875 37.4375 C-9.74736148 37.97259559 -6.01643679 37.31157096 -1.046875 35.09375 C0.8125 34.4375 0.8125 34.4375 4.8125 34.4375 C6.33203125 35.828125 6.33203125 35.828125 7.625 37.6875 C8.06457031 38.29078125 8.50414062 38.8940625 8.95703125 39.515625 C9.8125 41.4375 9.8125 41.4375 9.80078125 43.5 C7.83613512 47.35163827 3.48687557 48.08135476 -0.37109375 49.44921875 C-10.28650825 52.0168747 -20.21699464 51.57071601 -29.1875 46.4375 C-35.37480633 42.66606165 -37.97121778 37.08634665 -40.1875 30.4375 C-40.81027571 22.40267235 -41.16847862 15.10584597 -36.1875 8.4375 C-27.30545976 -1.84696764 -12.78218379 -5.13041339 0 0 Z " fill="#15436E" transform="translate(565.1875,637.5625)"/>
<path d="M0 0 C4.58444921 2.71383886 7.35808883 7.13703111 9.05078125 12.12207031 C9.70564163 15.58855947 9.62200018 19.03327465 9.59765625 22.546875 C9.5962413 23.31807678 9.59482635 24.08927856 9.59336853 24.8838501 C9.58778534 27.33927338 9.57523595 29.79460442 9.5625 32.25 C9.55748283 33.91796743 9.5529203 35.58593629 9.54882812 37.25390625 C9.53867366 41.33600136 9.51909507 45.4178978 9.5 49.5 C3.89 49.5 -1.72 49.5 -7.5 49.5 C-7.52578125 47.16421875 -7.5515625 44.8284375 -7.578125 42.421875 C-7.61656021 40.15466361 -7.66171531 37.88767854 -7.70751953 35.62060547 C-7.73570954 34.04747356 -7.75693398 32.47420053 -7.77099609 30.90087891 C-7.79245442 28.63631044 -7.83911348 26.37343496 -7.890625 24.109375 C-7.89185364 23.40818542 -7.89308228 22.70699585 -7.89434814 21.98455811 C-7.996105 18.57669085 -8.28088893 16.78174642 -10.39941406 14.05761719 C-12.81651174 12.26530162 -14.01901232 11.95916455 -17 12 C-17.7528125 11.9896875 -18.505625 11.979375 -19.28125 11.96875 C-22.4430122 12.72579165 -23.50640449 13.93651292 -25.5 16.5 C-25.91801769 19.1673866 -26.10469958 21.44108981 -26.109375 24.109375 C-26.12591125 24.83618469 -26.14244751 25.56299438 -26.15948486 26.31182861 C-26.20792361 28.62463869 -26.22932489 30.93679157 -26.25 33.25 C-26.27816341 34.82164757 -26.30809137 36.39326459 -26.33984375 37.96484375 C-26.41699444 41.81019677 -26.45754396 45.65348242 -26.5 49.5 C-32.11 49.5 -37.72 49.5 -43.5 49.5 C-43.5 33 -43.5 16.5 -43.5 -0.5 C-38.22 -0.5 -32.94 -0.5 -27.5 -0.5 C-27.17 1.15 -26.84 2.8 -26.5 4.5 C-25.571875 3.695625 -24.64375 2.89125 -23.6875 2.0625 C-17.58649883 -3.22503435 -7.23786161 -3.14148104 0 0 Z " fill="#1C4872" transform="translate(443.5,637.5)"/>
<path d="M0 0 C4.84974831 2.87088695 7.74237782 7.16463345 9.5 12.4375 C9.58518867 15.24176452 9.6158852 18.0204635 9.59765625 20.82421875 C9.5962413 21.64122757 9.59482635 22.45823639 9.59336853 23.30000305 C9.58777294 25.90837268 9.57522129 28.51665634 9.5625 31.125 C9.55748443 32.89387897 9.55292162 34.66275928 9.54882812 36.43164062 C9.53865603 40.76698682 9.51907979 45.10214722 9.5 49.4375 C4.22 49.4375 -1.06 49.4375 -6.5 49.4375 C-6.51417969 47.18550781 -6.52835937 44.93351563 -6.54296875 42.61328125 C-6.57361991 40.42213146 -6.61270005 38.23128202 -6.65258789 36.0402832 C-6.67572451 34.52248832 -6.69015348 33.00453387 -6.69555664 31.48657227 C-6.70487922 29.2986357 -6.74593151 27.11319313 -6.79296875 24.92578125 C-6.8086792 23.61134033 -6.82438965 22.29689941 -6.84057617 20.94262695 C-7.65226763 16.62813076 -9.12126445 15.14795632 -12.5 12.4375 C-14.50888517 11.66717185 -14.50888517 11.66717185 -16.5 11.8125 C-17.139375 11.79960938 -17.77875 11.78671875 -18.4375 11.7734375 C-21.76525829 12.84487483 -23.29657638 14.76768913 -25.5 17.4375 C-26.27506771 21.00069377 -26.27506771 21.00069377 -26.20703125 24.92578125 C-26.22215256 25.62897995 -26.23727386 26.33217865 -26.25285339 27.0566864 C-26.29561495 29.28812003 -26.30455593 31.51819809 -26.3125 33.75 C-26.33565371 35.26891595 -26.36102089 36.78779988 -26.38867188 38.30664062 C-26.45555532 42.01765828 -26.47662382 45.72493765 -26.5 49.4375 C-31.78 49.4375 -37.06 49.4375 -42.5 49.4375 C-42.5 32.9375 -42.5 16.4375 -42.5 -0.5625 C-37.55 -0.5625 -32.6 -0.5625 -27.5 -0.5625 C-27.5 1.4175 -27.5 3.3975 -27.5 5.4375 C-26.84 5.4375 -26.18 5.4375 -25.5 5.4375 C-25.190625 4.5403125 -25.190625 4.5403125 -24.875 3.625 C-20.10192806 -3.96852354 -7.37898243 -3.25460822 0 0 Z " fill="#13406C" transform="translate(506.5,637.5625)"/>
<path d="M0 0 C1.1034375 -0.00773437 2.206875 -0.01546875 3.34375 -0.0234375 C8.02718002 0.56778758 10.57409411 2.3432763 13.6875 5.8125 C16.57874699 9.90012505 17.78201236 12.29877745 17.5 17.375 C15.31054179 16.35846583 13.55996281 15.42853822 11.75 13.8125 C8.48093468 11.72393049 5.31242016 11.16081909 1.5 11.375 C-4.73344518 13.8049871 -7.68230797 17.37639782 -10.5 23.375 C-13.15700432 30.14205789 -13.93095064 38.2122345 -11.5546875 45.125 C-9.2241544 50.04990013 -6.63325599 53.83220915 -2.5 57.375 C-5.17681378 61.03459106 -7.6412406 63.96560833 -12.19580078 64.96875 C-15.34288513 65.10145525 -18.41672107 65.03493493 -21.5625 64.875 C-22.66907959 64.84599609 -23.77565918 64.81699219 -24.91577148 64.78710938 C-28.11400281 64.69156289 -31.30496699 64.54534636 -34.5 64.375 C-35.33402344 64.33246094 -36.16804687 64.28992188 -37.02734375 64.24609375 C-40.86035758 64.03726523 -44.68043308 63.75763998 -48.5 63.375 C-48.02691406 62.55 -47.55382812 61.725 -47.06640625 60.875 C-43.42083084 54.5108963 -39.79020221 48.13847979 -36.1875 41.75 C-35.81826416 41.09821777 -35.44902832 40.44643555 -35.06860352 39.77490234 C-32.92150296 35.9672498 -30.83575953 32.13447102 -28.80078125 28.265625 C-13.78516322 -0.09662498 -13.78516322 -0.09662498 0 0 Z " fill="#188C46" transform="translate(668.5,346.625)"/>
<path d="M0 0 C5.28 0 10.56 0 16 0 C16 4.62 16 9.24 16 14 C20.95 14 25.9 14 31 14 C31 17.96 31 21.92 31 26 C26.05 26 21.1 26 16 26 C16.08694665 29.41790299 16.1938292 32.83317658 16.3125 36.25 C16.33505859 37.21808594 16.35761719 38.18617188 16.38085938 39.18359375 C16.4340332 40.58544922 16.4340332 40.58544922 16.48828125 42.015625 C16.51446533 42.87446289 16.54064941 43.73330078 16.56762695 44.61816406 C17.09098989 47.50124075 17.95286487 48.91744113 20 51 C24.33966415 51.40182075 27.6947422 50.86105156 32 50 C32.495 56.435 32.495 56.435 33 63 C25.40447728 65.82624101 16.09645074 66.75768096 8.5 63.5 C4.30243629 60.80430589 1.84729912 57.63740695 0 53 C-0.58425667 48.47755305 -0.47500388 44.05010861 -0.3125 39.5 C-0.27866211 37.69402344 -0.27866211 37.69402344 -0.24414062 35.8515625 C-0.18557259 32.89973339 -0.10360022 29.95053427 0 27 C-3.3 27 -6.6 27 -10 27 C-10 22.71 -10 18.42 -10 14 C-6.7 14 -3.4 14 0 14 C0 9.38 0 4.76 0 0 Z " fill="#194771" transform="translate(647,623)"/>
<path d="M0 0 C2.30014814 1.17327441 4.4294089 2.37554256 6.5234375 3.8828125 C6.5234375 8.25732565 6.11966147 8.88753253 3.5234375 12.1328125 C2.9665625 12.83921875 2.4096875 13.545625 1.8359375 14.2734375 C1.4028125 14.80453125 0.9696875 15.335625 0.5234375 15.8828125 C-4.2265625 14.0078125 -4.2265625 14.0078125 -6.4765625 12.8828125 C-11.99155245 12.26115502 -16.11239858 11.81876464 -20.6015625 15.3203125 C-21.2203125 16.1659375 -21.8390625 17.0115625 -22.4765625 17.8828125 C-22.8065625 18.2128125 -23.1365625 18.5428125 -23.4765625 18.8828125 C-23.99626985 23.96060886 -24.28629408 28.41329964 -21.7890625 32.9453125 C-18.19341244 35.95788417 -15.64609164 36.77839025 -10.9765625 37.1953125 C-7.23262004 36.86103192 -5.54970423 35.93157365 -2.4765625 33.8828125 C0.5234375 33.8828125 0.5234375 33.8828125 2.34765625 35.52734375 C2.96253906 36.24277344 3.57742188 36.95820312 4.2109375 37.6953125 C4.83355469 38.40300781 5.45617187 39.11070312 6.09765625 39.83984375 C7.5234375 41.8828125 7.5234375 41.8828125 7.5234375 44.8828125 C5.9205322 45.69779812 4.31606472 46.50971177 2.7109375 47.3203125 C1.81761719 47.77277344 0.92429687 48.22523438 0.00390625 48.69140625 C-7.32471161 52.21145105 -16.21412673 52.19247247 -23.921875 49.82421875 C-31.49339527 46.32310224 -35.934771 42.03749457 -39.59375 34.6171875 C-41.76146011 27.90304115 -41.69716596 19.51677643 -39.44921875 12.82421875 C-31.67960611 -1.31604581 -14.65927781 -4.71073422 0 0 Z " fill="#164570" transform="translate(625.4765625,637.1171875)"/>
<path d="M0 0 C5.30215194 0.26209371 10.60404779 0.52875081 15.90576172 0.79956055 C17.70778246 0.89097209 19.50986591 0.98115639 21.31201172 1.07006836 C23.90870512 1.19839749 26.50513784 1.33120033 29.1015625 1.46484375 C30.30191635 1.52272316 30.30191635 1.52272316 31.52651978 1.58177185 C32.66702286 1.64172081 32.66702286 1.64172081 33.83056641 1.70288086 C34.82317978 1.75284462 34.82317978 1.75284462 35.83584595 1.80381775 C38 2 38 2 40.77050781 2.5057373 C44.47301925 3.07239397 48.10551368 3.17494412 51.84130859 3.20532227 C52.60296326 3.21522186 53.36461792 3.22512146 54.14935303 3.23532104 C56.649017 3.26672861 59.14869994 3.29161078 61.6484375 3.31640625 C63.38864618 3.33699373 65.12885006 3.35799066 66.86904907 3.37937927 C71.43593444 3.43441477 76.00286354 3.48390528 80.56982422 3.53222656 C85.23539088 3.58257733 89.90089449 3.63819235 94.56640625 3.69335938 C103.71088356 3.80071419 112.85541576 3.90220897 122 4 C123.33819498 6.6226232 124.6707151 9.24786599 126 11.875 C126.57234375 12.99455078 126.57234375 12.99455078 127.15625 14.13671875 C127.5171875 14.85214844 127.878125 15.56757813 128.25 16.3046875 C128.58515625 16.96452637 128.9203125 17.62436523 129.265625 18.30419922 C130 20 130 20 130 22 C118.6555382 21.24041949 107.39833047 19.75660339 96.125 18.3125 C95.09377014 18.18061279 94.06254028 18.04872559 93.00006104 17.9128418 C11.70046544 7.46704139 11.70046544 7.46704139 0 1 C0 0.67 0 0.34 0 0 Z " fill="#135770" transform="translate(263,399)"/>
<path d="M0 0 C1.32 0.66 2.64 1.32 4 2 C3.34 6.62 2.68 11.24 2 16 C0.02 15.67 -1.96 15.34 -4 15 C-10.35988063 14.4777785 -10.35988063 14.4777785 -16 17 C-18.32026661 20.54517359 -18.30809278 23.78498283 -18.4140625 27.953125 C-18.43342865 28.61334656 -18.4527948 29.27356812 -18.4727478 29.95379639 C-18.53229349 32.05240153 -18.57882722 34.15106228 -18.625 36.25 C-18.66320294 37.6771066 -18.70225602 39.10419072 -18.7421875 40.53125 C-18.83956786 44.02071305 -18.91932976 47.50995085 -19 51 C-24.28 51 -29.56 51 -35 51 C-35 34.5 -35 18 -35 1 C-30.05 1 -25.1 1 -20 1 C-20 3.31 -20 5.62 -20 8 C-19.34 8 -18.68 8 -18 8 C-17.79375 7.4225 -17.5875 6.845 -17.375 6.25 C-13.34265626 -0.34838067 -7.078079 -1.00447986 0 0 Z " fill="#13416E" transform="translate(255,636)"/>
<path d="M0 0 C3.3 0 6.6 0 10 0 C10 20.13 10 40.26 10 61 C21.22 61 32.44 61 44 61 C44 63.97 44 66.94 44 70 C29.48 70 14.96 70 0 70 C0 46.9 0 23.8 0 0 Z " fill="#1D9249" transform="translate(712,616)"/>
<path d="M0 0 C3.3 0 6.6 0 10 0 C10 4.29 10 8.58 10 13 C14.95 13 19.9 13 25 13 C25 15.97 25 18.94 25 22 C20.05 22 15.1 22 10 22 C10.07392857 26.2368717 10.15667396 30.47160105 10.26245117 34.70751953 C10.29573178 36.14881342 10.32375404 37.59023863 10.34643555 39.03173828 C10.3799262 41.10245797 10.432233 43.17197093 10.48828125 45.2421875 C10.51446533 46.4885498 10.54064941 47.73491211 10.56762695 49.01904297 C10.71031006 50.00275879 10.85299316 50.98647461 11 52 C14.55539739 54.37026492 15.51889608 54.08795129 19.625 53.5625 C21.41261206 53.33963498 23.20425826 53.14330838 25 53 C26 54 26 54 26.09765625 55.84765625 C26.06510417 57.8984375 26.03255208 59.94921875 26 62 C19.8044395 63.95045423 14.37413892 64.65215975 8 63 C3.67493966 60.69508101 1.42839846 57.64331354 0 53 C-0.22705078 49.58666992 -0.22705078 49.58666992 -0.1953125 45.73046875 C-0.1924826 45.04946609 -0.18965271 44.36846344 -0.18673706 43.66682434 C-0.17560525 41.50686545 -0.15051457 39.34733206 -0.125 37.1875 C-0.11496111 35.71680289 -0.10583685 34.24609924 -0.09765625 32.77539062 C-0.07568913 29.18345714 -0.0412082 25.59177015 0 22 C-2.97 22 -5.94 22 -9 22 C-9 19.36 -9 16.72 -9 14 C-6.03 14 -3.06 14 0 14 C0 9.38 0 4.76 0 0 Z " fill="#208C49" transform="translate(765,624)"/>
<path d="M0 0 C4.07115453 2.65398049 6.46416908 5.30442234 7.9765625 10.01953125 C8.72159146 15.64449986 8.59806262 20.66852224 5.37109375 25.48046875 C1.69293901 29.5398328 -2.21682832 31.80149221 -7.6484375 32.45703125 C-14.15845823 31.61313967 -17.69458401 30.06986032 -22.0234375 25.01953125 C-25.06785238 20.06699719 -24.8354662 14.63187119 -24.0234375 9.01953125 C-21.91357367 4.29673997 -19.06186917 1.66610191 -14.7109375 -1.04296875 C-9.43190166 -2.38509651 -4.97377593 -2.41007289 0 0 Z " fill="#F8FBF9" transform="translate(830.0234375,646.98046875)"/>
<path d="M0 0 C12.65391744 -0.324741 25.25382126 0.64511842 37.875 1.4375 C40.09763462 1.57392065 42.32029078 1.70999075 44.54296875 1.84570312 C49.77787512 2.16642912 55.01226333 2.49475284 60.24645996 2.82684326 C62.74253355 2.98380919 65.23884843 3.13569813 67.73535156 3.28564453 C69.07617999 3.36868424 70.41700104 3.45184309 71.7578125 3.53515625 C73.41901123 3.63582397 73.41901123 3.63582397 75.11376953 3.73852539 C78 4 78 4 80.82763672 4.59155273 C81.5445166 4.72634033 82.26139648 4.86112793 83 5 C83.33 4.67 83.66 4.34 84 4 C85.46256177 3.8965875 86.93004264 3.86149679 88.39624023 3.85473633 C89.79790688 3.84516655 89.79790688 3.84516655 91.22789001 3.83540344 C92.24452225 3.83429062 93.26115448 3.8331778 94.30859375 3.83203125 C95.34564957 3.82870285 96.38270538 3.82537445 97.45118713 3.82194519 C99.64950109 3.8168714 101.84782277 3.814537 104.04614258 3.81469727 C107.41956201 3.81251162 110.79265417 3.79436286 114.16601562 3.77539062 C116.29687388 3.7724567 118.42773369 3.7704719 120.55859375 3.76953125 C121.57320175 3.76234573 122.58780975 3.75516022 123.63316345 3.74775696 C124.57076004 3.75083359 125.50835663 3.75391022 126.47436523 3.75708008 C127.30185776 3.75565506 128.12935028 3.75423004 128.98191833 3.75276184 C131 4 131 4 133 6 C131.80375 6.474375 130.6075 6.94875 129.375 7.4375 C128.70210937 7.70433594 128.02921875 7.97117187 127.3359375 8.24609375 C122.10369302 9.93476128 116.97371576 10.12809179 111.5078125 10.1328125 C110.7820401 10.13426773 110.0562677 10.13572296 109.3085022 10.13722229 C106.91395 10.13948085 104.51953836 10.13313242 102.125 10.125 C101.29343384 10.12311676 100.46186768 10.12123352 99.60510254 10.11929321 C73.72531252 10.05135031 47.85652726 9.83666606 22.0625 7.5625 C21.00150085 7.47033707 21.00150085 7.47033707 19.91906738 7.37631226 C12.46358469 6.7143656 5.25968744 5.84082085 -2 4 C-2 3.34 -2 2.68 -2 2 C-1.34 2 -0.68 2 0 2 C0 1.34 0 0.68 0 0 Z " fill="#F6F7F9" transform="translate(242,350)"/>
<path d="M0 0 C3.77768591 3.77768591 5.15541283 6.55502994 5.25 11.8125 C5.18902514 16.04415503 4.94737509 18.7578874 2 22 C-2.77639828 25.22129186 -6.41742223 25.62028642 -12 25 C-15.5772353 22.82255243 -17.42792574 20.83449416 -19 17 C-19.72888607 12.42343651 -20.03620359 7.9277424 -17.796875 3.76171875 C-12.59198965 -2.58666414 -7.52909979 -2.85109294 0 0 Z " fill="#F8F9FA" transform="translate(370,650)"/>
<path d="M0 0 C0.495 1.485 0.495 1.485 1 3 C0.67 3.66 0.34 4.32 0 5 C-7.26769994 6.1936555 -14.525344 6.15075814 -21.875 6.125 C-23.00164062 6.12886719 -24.12828125 6.13273438 -25.2890625 6.13671875 C-26.36671875 6.13542969 -27.444375 6.13414062 -28.5546875 6.1328125 C-29.52905762 6.13168457 -30.50342773 6.13055664 -31.50732422 6.12939453 C-34 6 -34 6 -37 5 C-37 4.34 -37 3.68 -37 3 C-38.65 3.33 -40.3 3.66 -42 4 C-42.66 3.01 -43.32 2.02 -44 1 C-29.17539586 -0.9842667 -14.91446502 -0.97704807 0 0 Z " fill="#DFDFDE" transform="translate(489,577)"/>
<path d="M0 0 C0.97582031 0.00902344 1.95164063 0.01804687 2.95703125 0.02734375 C4.06111328 0.04474609 4.06111328 0.04474609 5.1875 0.0625 C5.47821669 4.56095823 5.47821669 4.56095823 4.1640625 6.828125 C-0.45658709 11.90282686 -0.45658709 11.90282686 -3.8359375 12.30078125 C-10.15587827 12.50024782 -10.15587827 12.50024782 -13.4375 10.3125 C-14.8125 8.0625 -14.8125 8.0625 -14.75 6 C-13.66629878 3.76035081 -12.8091626 2.55999695 -10.8125 1.0625 C-7.16166006 0.12280555 -3.75934136 -0.04529327 0 0 Z " fill="#F3F5F7" transform="translate(187.8125,664.9375)"/>
<path d="M0 0 C3.28150021 1.27448466 3.95910413 1.93865619 6 5 C6 6.32 6 7.64 6 9 C-0.93 9 -7.86 9 -15 9 C-14 4 -14 4 -12 1.6875 C-7.98505087 -0.57090888 -4.52007963 -0.69539687 0 0 Z " fill="#F5F7F9" transform="translate(556,647)"/>
<path d="M0 0 C7.77121047 -0.02316284 15.54241286 -0.04093523 23.31364918 -0.05181217 C26.92208385 -0.05703236 30.53049492 -0.06411436 34.13891602 -0.07543945 C37.62076233 -0.086299 41.10258592 -0.09228336 44.58444786 -0.09487724 C46.56035995 -0.0976261 48.5362629 -0.10543327 50.51216125 -0.11329651 C51.71317978 -0.11337204 52.9141983 -0.11344757 54.15161133 -0.11352539 C55.21084305 -0.115746 56.27007477 -0.11796661 57.36140442 -0.12025452 C60 0 60 0 63 1 C63 1.66 63 2.32 63 3 C56.27802837 3.05122586 49.55610813 3.08595134 42.83398438 3.10986328 C40.55304076 3.11984482 38.27210969 3.1334348 35.99121094 3.15087891 C11.68600572 3.3319431 11.68600572 3.3319431 0 1 C0 0.67 0 0.34 0 0 Z " fill="#F1F1F1" transform="translate(440,574)"/>
<path d="M0 0 C0.66 0 1.32 0 2 0 C2 12.21 2 24.42 2 37 C-3.28 37 -8.56 37 -14 37 C-14 30.07 -14 23.14 -14 16 C-13.67 16 -13.34 16 -13 16 C-13 22.27 -13 28.54 -13 35 C-8.71 35 -4.42 35 0 35 C0 23.45 0 11.9 0 0 Z " fill="#1F4A73" transform="translate(514,650)"/>
<path d="M0 0 C7.59 0 15.18 0 23 0 C23 0.33 23 0.66 23 1 C20.69 1.33 18.38 1.66 16 2 C15.690625 2.804375 15.38125 3.60875 15.0625 4.4375 C14 7 14 7 13 8 C11.33382885 8.04063832 9.66611905 8.042721 8 8 C8 7.34 8 6.68 8 6 C-7.18 5.67 -22.36 5.34 -38 5 C-38 4.67 -38 4.34 -38 4 C-15.725 3.505 -15.725 3.505 7 3 C4.69 2.34 2.38 1.68 0 1 C0 0.67 0 0.34 0 0 Z " fill="#376A90" transform="translate(365,349)"/>
<path d="M0 0 C0 0.66 0 1.32 0 2 C1.98 2 3.96 2 6 2 C6 2.99 6 3.98 6 5 C7.65 4.67 9.3 4.34 11 4 C10.67 4.99 10.34 5.98 10 7 C6.37 7.33 2.74 7.66 -1 8 C-1 7.34 -1 6.68 -1 6 C-2.32 6 -3.64 6 -5 6 C-5 5.34 -5 4.68 -5 4 C-7.31 4 -9.62 4 -12 4 C-12 3.34 -12 2.68 -12 2 C-10.56342755 1.66269158 -9.12569907 1.33030409 -7.6875 1 C-6.88699219 0.814375 -6.08648437 0.62875 -5.26171875 0.4375 C-3 0 -3 0 0 0 Z " fill="#C8C7C7" transform="translate(478,585)"/>
<path d="M0 0 C12.54 0.66 25.08 1.32 38 2 C38 2.33 38 2.66 38 3 C37.09636719 3.04898437 36.19273437 3.09796875 35.26171875 3.1484375 C34.08222656 3.22320312 32.90273438 3.29796875 31.6875 3.375 C29.92986328 3.47941406 29.92986328 3.47941406 28.13671875 3.5859375 C24.84300113 3.78613747 24.84300113 3.78613747 22 6 C14.9523579 5.60846433 7.73850227 4.06805723 1 2 C0.67 1.34 0.34 0.68 0 0 Z " fill="#3B708E" transform="translate(263,399)"/>
<path d="M0 0 C1.30195313 0.00322266 2.60390625 0.00644531 3.9453125 0.00976562 C5.32552149 0.01812159 6.70572982 0.02658654 8.0859375 0.03515625 C9.47395676 0.04017124 10.86197772 0.04473415 12.25 0.04882812 C15.65368882 0.06064649 19.05729189 0.07712191 22.4609375 0.09765625 C22.7909375 0.75765625 23.1209375 1.41765625 23.4609375 2.09765625 C18.06936031 3.70654333 12.47384318 3.28201871 6.8984375 3.28515625 C5.74923828 3.29740234 4.60003906 3.30964844 3.41601562 3.32226562 C2.31580078 3.32419922 1.21558594 3.32613281 0.08203125 3.328125 C-0.9241626 3.33223389 -1.93035645 3.33634277 -2.96704102 3.34057617 C-5.5390625 3.09765625 -5.5390625 3.09765625 -8.5390625 1.09765625 C-5.66887809 -0.33743596 -3.20362527 -0.01392881 0 0 Z " fill="#C9C8C7" transform="translate(460.5390625,579.90234375)"/>
<path d="M0 0 C-1.96199659 1.96199659 -3.29523208 2.73184877 -5.7734375 3.875 C-6.5159375 4.22046875 -7.2584375 4.5659375 -8.0234375 4.921875 C-8.79945313 5.27765625 -9.57546875 5.6334375 -10.375 6 C-11.90381249 6.70797357 -13.43246356 7.41629582 -14.9609375 8.125 C-15.63946777 8.43695313 -16.31799805 8.74890625 -17.01708984 9.0703125 C-19.02911285 10.01364956 -21.01660527 10.99805039 -23 12 C-23.33 11.01 -23.66 10.02 -24 9 C-23.01 8.67 -22.02 8.34 -21 8 C-22.32 7.67 -23.64 7.34 -25 7 C-22.77335683 6.014733 -20.54398683 5.03668556 -18.3125 4.0625 C-17.68666016 3.78470703 -17.06082031 3.50691406 -16.41601562 3.22070312 C-10.73460518 0.75181796 -6.16723492 -0.14342407 0 0 Z " fill="#2C9452" transform="translate(656,328)"/>
<path d="M0 0 C1.98 0.66 3.96 1.32 6 2 C5.67 2.66 5.34 3.32 5 4 C-4.24 4 -13.48 4 -23 4 C-22.67 3.01 -22.34 2.02 -22 1 C-14.74 1 -7.48 1 0 1 C0 0.67 0 0.34 0 0 Z " fill="#2D6574" transform="translate(429,419)"/>
<path d="M0 0 C3.56682676 1.32104695 5.3838162 3.48897035 7.71875 6.421875 C10.47876272 9.82140286 13.60866416 12.68203963 17 15.4375 C19.2453846 17.35543268 20.92320888 18.99874859 22.75 21.25 C24.70631884 24.02359938 24.70631884 24.02359938 27 25 C26.67 25.99 26.34 26.98 26 28 C22.2908542 24.34017795 18.58823822 20.67392152 14.89160156 17.00146484 C13.63232287 15.75226298 12.37125764 14.50485944 11.10839844 13.25927734 C9.29673588 11.47178925 7.49153161 9.67799773 5.6875 7.8828125 C5.11878174 7.32441681 4.55006348 6.76602112 3.96411133 6.19070435 C2.6042535 4.83124115 1.29658827 3.41993393 0 2 C0 1.34 0 0.68 0 0 Z " fill="#207E48" transform="translate(421,520)"/>
<path d="M0 0 C0.33 1.32 0.66 2.64 1 4 C1.68102783 3.96447021 2.36205566 3.92894043 3.0637207 3.89233398 C6.14637865 3.73482208 9.22939829 3.58606112 12.3125 3.4375 C13.38435547 3.38142578 14.45621094 3.32535156 15.56054688 3.26757812 C17.10258789 3.19506836 17.10258789 3.19506836 18.67578125 3.12109375 C19.62364502 3.0739624 20.57150879 3.02683105 21.5480957 2.97827148 C24 3 24 3 27 4 C27 4.66 27 5.32 27 6 C18.09 6 9.18 6 0 6 C0 4.02 0 2.04 0 0 Z " fill="#37658B" transform="translate(222,394)"/>
<path d="M0 0 C-0.33 0.99 -0.66 1.98 -1 3 C-2.27061279 2.76228882 -2.27061279 2.76228882 -3.56689453 2.51977539 C-7.05075847 1.99231512 -10.40887851 1.79264536 -13.9296875 1.68359375 C-15.86328125 1.62075195 -15.86328125 1.62075195 -17.8359375 1.55664062 C-19.18228909 1.51683972 -20.52864329 1.47712727 -21.875 1.4375 C-23.24480333 1.39424817 -24.61459521 1.35063188 -25.984375 1.30664062 C-29.32282157 1.20084478 -32.661339 1.09875628 -36 1 C-36 0.67 -36 0.34 -36 0 C-23.78545451 -1.07212312 -12.21454549 -1.07212312 0 0 Z M-38 1 C-36 2 -36 2 -36 2 Z " fill="#D5D5D4" transform="translate(490,579)"/>
<path d="M0 0 C-1.7241302 1.29838176 -3.45453232 2.58843747 -5.1875 3.875 C-6.63189453 4.95394531 -6.63189453 4.95394531 -8.10546875 6.0546875 C-10.71128675 7.80596599 -13.04792144 8.97459794 -16 10 C-16 9.34 -16 8.68 -16 8 C-16.66 7.67 -17.32 7.34 -18 7 C-15.69 6.34 -13.38 5.68 -11 5 C-11 4.34 -11 3.68 -11 3 C-10.34 3 -9.68 3 -9 3 C-9 2.34 -9 1.68 -9 1 C-10.65 1 -12.3 1 -14 1 C-14 0.67 -14 0.34 -14 0 C-12.04235617 -0.19456705 -10.08384679 -0.38044247 -8.125 -0.5625 C-6.48917969 -0.71912109 -6.48917969 -0.71912109 -4.8203125 -0.87890625 C-2 -1 -2 -1 0 0 Z " fill="#0A4277" transform="translate(390,350)"/>
<path d="M0 0 C0 3.73107354 -0.75948185 4.14432705 -3.32421875 6.72265625 C-4.02353516 7.42583984 -4.72285156 8.12902344 -5.44335938 8.85351562 C-6.18392578 9.58248047 -6.92449219 10.31144531 -7.6875 11.0625 C-8.7693457 12.16174805 -8.7693457 12.16174805 -9.87304688 13.28320312 C-10.57880859 13.98509766 -11.28457031 14.68699219 -12.01171875 15.41015625 C-12.65584717 16.05090088 -13.29997559 16.69164551 -13.96362305 17.35180664 C-16.20113726 19.16279554 -18.29103139 20.06645045 -21 21 C-16.16024158 15.05401108 -10.88076369 9.83201539 -5.1875 4.6875 C-4.21167969 3.80449219 -3.23585938 2.92148437 -2.23046875 2.01171875 C-1.49441406 1.34785156 -0.75835937 0.68398438 0 0 Z " fill="#1C6091" transform="translate(505,287)"/>
<path d="M0 0 C0 3 0 3 -1.12988281 4.48632812 C-1.64905273 4.99615234 -2.16822266 5.50597656 -2.703125 6.03125 C-3.55583984 6.87623047 -3.55583984 6.87623047 -4.42578125 7.73828125 C-5.32876953 8.61033203 -5.32876953 8.61033203 -6.25 9.5 C-7.12978516 10.37205078 -7.12978516 10.37205078 -8.02734375 11.26171875 C-10.88041823 14.063502 -13.70331574 16.71516933 -17 19 C-17.66 18.67 -18.32 18.34 -19 18 C-6.51480638 5.33029613 -6.51480638 5.33029613 0 0 Z " fill="#4DAC4F" transform="translate(622,357)"/>
<path d="M0 0 C0.33 0.66 0.66 1.32 1 2 C-3.76008307 7.5930976 -8.74595676 12.86877855 -14 18 C-14.66 17.67 -15.32 17.34 -16 17 C-14.27227744 15.10283355 -12.54287266 13.20724695 -10.8125 11.3125 C-10.32974609 10.78205078 -9.84699219 10.25160156 -9.34960938 9.70507812 C-6.312614 6.38272748 -3.2063098 3.15941679 0 0 Z " fill="#146CA2" transform="translate(359,208)"/>
<path d="M0 0 C0 3 0 3 -1.14575195 4.44213867 C-1.67128662 4.9291626 -2.19682129 5.41618652 -2.73828125 5.91796875 C-3.31126953 6.44970703 -3.88425781 6.98144531 -4.47460938 7.52929688 C-5.08111328 8.07650391 -5.68761719 8.62371094 -6.3125 9.1875 C-6.90740234 9.74630859 -7.50230469 10.30511719 -8.11523438 10.88085938 C-12.61661516 15 -12.61661516 15 -16 15 C-11.30217584 9.06590633 -6.01350104 4.57548992 0 0 Z " fill="#45A051" transform="translate(639,342)"/>
<path d="M0 0 C1.13732426 3.40401948 0.83989957 5.77456664 0.0625 9.25 C-0.13214844 10.14203125 -0.32679688 11.0340625 -0.52734375 11.953125 C-0.68332031 12.62859375 -0.83929688 13.3040625 -1 14 C1.64 13.67 4.28 13.34 7 13 C3.55549263 15.29633824 1.06187717 15.54016485 -3 16 C-2.57910004 10.39538469 -2.08386889 5.27913453 0 0 Z " fill="#1C598A" transform="translate(312,286)"/>
<path d="M0 0 C0.99 0.33 1.98 0.66 3 1 C2.67 1.66 2.34 2.32 2 3 C3.32 3.33 4.64 3.66 6 4 C2.38026598 5.31626692 -0.09567131 6 -4 6 C-3.6875 4.125 -3.6875 4.125 -3 2 C-2.01 1.34 -1.02 0.68 0 0 Z " fill="#114271" transform="translate(337,334)"/>
<path d="M0 0 C-0.33 0.66 -0.66 1.32 -1 2 C-3.50390625 2.4140625 -3.50390625 2.4140625 -6.5625 2.625 C-7.57441406 2.69976563 -8.58632813 2.77453125 -9.62890625 2.8515625 C-10.41136719 2.90054688 -11.19382812 2.94953125 -12 3 C-12 2.34 -12 1.68 -12 1 C-13.32 0.67 -14.64 0.34 -16 0 C-13.89651926 -0.19504458 -11.79217415 -0.38078496 -9.6875 -0.5625 C-8.51574219 -0.66691406 -7.34398437 -0.77132812 -6.13671875 -0.87890625 C-3 -1 -3 -1 0 0 Z " fill="#DFDFDE" transform="translate(489,590)"/>
<path d="M0 0 C0.66 0.66 1.32 1.32 2 2 C1.69379129 7.51175672 -1.56177646 11.39257369 -5.125 15.375 C-7 17 -7 17 -9 17 C-7.76163579 13.28490737 -5.77895064 11.71117136 -3 9 C-0.87491756 5.81237635 -0.4979837 3.73487777 0 0 Z " fill="#24974A" transform="translate(699,344)"/>
<path d="M0 0 C4.21704138 1.56186718 6.2578799 4.55477218 9 8 C9.98290968 9.01680311 10.97334787 10.02738219 12 11 C9 11 9 11 6.73828125 9.1015625 C5.93777344 8.28429687 5.13726562 7.46703125 4.3125 6.625 C3.50425781 5.81289063 2.69601562 5.00078125 1.86328125 4.1640625 C0 2 0 2 0 0 Z " fill="#167F42" transform="translate(421,520)"/>
<path d="M0 0 C-2.92965912 2.92965912 -5.680053 3.94133569 -9.8125 4.125 C-10.534375 4.08375 -11.25625 4.0425 -12 4 C-11.67 3.01 -11.34 2.02 -11 1 C-7.26562152 0.12132271 -3.83225427 -0.08912219 0 0 Z " fill="#258B44" transform="translate(656,328)"/>
<path d="M0 0 C1.65 0.33 3.3 0.66 5 1 C4.67 1.66 4.34 2.32 4 3 C0.71480525 4.09506492 -1.73663415 4.09960608 -5.1875 4.0625 C-6.81751953 4.04896484 -6.81751953 4.04896484 -8.48046875 4.03515625 C-9.31191406 4.02355469 -10.14335938 4.01195312 -11 4 C-11 3.67 -11 3.34 -11 3 C-10.28972656 2.95101563 -9.57945312 2.90203125 -8.84765625 2.8515625 C-7.46900391 2.73941406 -7.46900391 2.73941406 -6.0625 2.625 C-5.14597656 2.55539062 -4.22945312 2.48578125 -3.28515625 2.4140625 C-2.15400391 2.20910156 -2.15400391 2.20910156 -1 2 C-0.67 1.34 -0.34 0.68 0 0 Z " fill="#4AA46D" transform="translate(684,328)"/>
<path d="M0 0 C3.3 0 6.6 0 10 0 C9.01 1.485 9.01 1.485 8 3 C4.375 3.1875 4.375 3.1875 1 3 C0.67 2.01 0.34 1.02 0 0 Z " fill="#09476A" transform="translate(276,401)"/>
<path d="M0 0 C0.66 0.33 1.32 0.66 2 1 C0.94124926 4.40312738 -0.00902154 7.01353231 -2 10 C-2.66 10 -3.32 10 -4 10 C-2.8905928 6.51329166 -1.73662334 3.22515763 0 0 Z " fill="#204B77" transform="translate(269,630)"/>
<path d="M0 0 C0 0.99 0 1.98 0 3 C-3.63 3 -7.26 3 -11 3 C-7.25593545 0.50395696 -4.45848315 0 0 0 Z " fill="#D3D2D1" transform="translate(484,587)"/>
<path d="M0 0 C0 3 0 3 -1.53125 4.82421875 C-2.1809375 5.43910156 -2.830625 6.05398438 -3.5 6.6875 C-4.1496875 7.31011719 -4.799375 7.93273437 -5.46875 8.57421875 C-5.9740625 9.04472656 -6.479375 9.51523437 -7 10 C-7.33 9.01 -7.66 8.02 -8 7 C-5.36 4.69 -2.72 2.38 0 0 Z " fill="#46A749" transform="translate(622,357)"/>
<path d="M0 0 C0.763125 0.20625 1.52625 0.4125 2.3125 0.625 C1.6525 1.945 0.9925 3.265 0.3125 4.625 C-1.6675 3.635 -3.6475 2.645 -5.6875 1.625 C-2.6875 -0.375 -2.6875 -0.375 0 0 Z " fill="#258D4D" transform="translate(690.6875,330.375)"/>
<path d="M0 0 C-2.68841859 2.25245881 -4.64641875 3.88213958 -8 5 C-7.625 3.0625 -7.625 3.0625 -7 1 C-4.53721199 -0.231394 -2.7204945 -0.07159196 0 0 Z " fill="#C7E7CF" transform="translate(661,328)"/>
<path d="M0 0 C-1.39332574 3.36720387 -2.9789286 4.9859524 -6 7 C-5.37162381 3.35541809 -4.14650034 0 0 0 Z " fill="#1A8844" transform="translate(807,641)"/>
<path d="M0 0 C2.31 0 4.62 0 7 0 C6.67 0.66 6.34 1.32 6 2 C3.67843403 2.40729228 1.3431213 2.74438677 -1 3 C-0.67 2.01 -0.34 1.02 0 0 Z " fill="#E9EFF4" transform="translate(378,320)"/>
</svg>
